<svg width="178" height="151" viewBox="0 0 178 151" fill="none" xmlns="http://www.w3.org/2000/svg">
<path d="M80.304 6.65376C81.2523 8.17105 81.8925 9.86027 82.188 11.625C82.4835 13.3897 82.4285 15.1953 82.0261 16.9387C81.6238 18.6822 80.882 20.3293 79.8431 21.7861C78.8042 23.2428 77.4886 24.4807 75.9713 25.429C59.3883 35.7581 46.2144 50.7422 38.0938 68.5113C46.2945 67.8255 54.5112 69.631 61.669 73.6916C68.8267 77.7522 74.5921 83.8788 78.2109 91.2698C81.8297 98.6607 83.1332 106.972 81.9511 115.116C80.7689 123.26 77.156 130.857 71.5852 136.914C66.0144 142.971 58.7449 147.206 50.7281 149.064C42.7112 150.922 34.3202 150.316 26.653 147.327C18.9857 144.338 12.3992 139.104 7.75527 132.31C3.11133 125.517 0.626193 117.479 0.625 109.25V108.882C0.639816 107.827 0.685252 106.773 0.76125 105.721C0.883875 103.677 1.12913 100.816 1.606 97.3009C2.55975 90.3113 4.42638 80.6784 8.2005 69.8601C15.7215 48.1964 30.9543 21.4233 61.5288 2.321C63.046 1.37269 64.7353 0.732523 66.5 0.437042C68.2647 0.14156 70.0703 0.196556 71.8137 0.59889C73.5572 1.00122 75.2043 1.74301 76.6611 2.78191C78.1178 3.8208 79.3557 5.13646 80.304 6.65376ZM175.679 6.65376C176.627 8.17105 177.268 9.86027 177.563 11.625C177.858 13.3897 177.803 15.1953 177.401 16.9387C176.999 18.6822 176.257 20.3293 175.218 21.7861C174.179 23.2428 172.864 24.4807 171.346 25.429C154.763 35.7581 141.589 50.7422 133.469 68.5113C141.669 67.8255 149.886 69.631 157.044 73.6916C164.202 77.7522 169.967 83.8788 173.586 91.2698C177.205 98.6607 178.508 106.972 177.326 115.116C176.144 123.26 172.531 130.857 166.96 136.914C161.389 142.971 154.12 147.206 146.103 149.064C138.086 150.922 129.695 150.316 122.028 147.327C114.361 144.338 107.774 139.104 103.13 132.31C98.4863 125.517 96.0012 117.479 96 109.25V108.882C96.0148 107.827 96.0603 106.773 96.1363 105.721C96.2589 103.677 96.5041 100.816 96.981 97.3009C97.9348 90.3113 99.8014 80.6784 103.576 69.8601C111.097 48.1964 126.329 21.4233 156.904 2.321C158.421 1.37269 160.11 0.732523 161.875 0.437042C163.64 0.14156 165.445 0.196556 167.189 0.59889C168.932 1.00122 170.579 1.74301 172.036 2.78191C173.493 3.8208 174.731 5.13646 175.679 6.65376Z" fill="#C0BEB3" fill-opacity="0.2"/>
</svg>
