<svg width="28" height="31" viewBox="0 0 28 31" fill="none" xmlns="http://www.w3.org/2000/svg">
<path d="M22.1709 4.85667C20.9938 3.51268 20.3452 1.78669 20.3457 0H15.0249V21.3556C14.9838 22.5112 14.496 23.6058 13.6641 24.4089C12.8323 25.212 11.7212 25.6609 10.5651 25.6611C8.1199 25.6611 6.08801 23.6633 6.08801 21.1833C6.08801 18.2211 8.94643 15.9994 11.8909 16.9122V11.47C5.95026 10.6778 0.75 15.2933 0.75 21.1833C0.75 26.9183 5.50255 31 10.5478 31C15.9547 31 20.3457 26.6083 20.3457 21.1833V10.3506C22.5032 11.9003 25.0937 12.7318 27.75 12.7272V7.40556C27.75 7.40556 24.5128 7.56056 22.1709 4.85667Z" fill="white"/>
</svg>
